<svg version="1.1" id="table" xmlns="http://www.w3.org/2000/svg" x="0" y="0" height="428" width="820" viewBox="0 0 820 428" xml:space="preserve"><style>.st2{fill:#c98c50}</style><g id="border_2_"><path d="M758.6,62.5C719.8,23.4,667.4,1,614.9,1c-45.3,0-72.6,3.2-101.5,6.7c-4.8,0.6-9.7,1.1-14.7,1.7 c-7,0.8-13.2,1.6-19.2,2.3c-21.4,2.7-38.3,4.8-68.4,5.1c-38.8-0.4-68.6-3.8-100.1-7.4c-8.6-1-15.9-2-23-2.9 C266.1,3.5,247.2,1,207.1,1C154.6,1,102.2,23.4,63.4,62.5C23.2,103.1,1,157.3,1,215c0,58.5,23.1,112.8,64.9,152.9 c41.2,39.4,96.4,61.1,155.4,61.1h379.4c59,0,114.2-21.7,155.4-61.1c41.9-40,64.9-94.3,64.9-152.9C821,157.3,798.8,103.1,758.6,62.5 z M600.7,409H221.3C110.9,409,21,325.4,21,215S110,21,207.1,21c51.4,0,65.8,4.2,101.5,8.3c32.1,3.7,62.5,7.1,102.4,7.5 c39.9-0.4,57.7-3.9,89.9-7.5c35.7-4.1,62.6-8.3,114-8.3C712,21,801,104.6,801,215S711.1,409,600.7,409z" fill="#935c2e"/><path d="M756.1,363.9c-41.2,39.4-96.4,61.1-155.4,61.1H221.3c-59,0-114.2-21.7-155.4-61.1C24.5,324.3,1.5,270.8,1,213 c0,0.7,0,1.3,0,2c0,58.5,23.1,112.8,64.9,152.9c41.2,39.4,96.4,61.1,155.4,61.1h379.4c59,0,114.2-21.7,155.4-61.1 c41.9-40,64.9-94.3,64.9-152.9c0-0.7,0-1.3,0-2C820.5,270.8,797.5,324.3,756.1,363.9z" fill="#593822"/><path class="st2" d="M63.4,66.5C102.2,27.4,154.6,5,207.1,5c40.1,0,58.9,2.5,80.8,5.5c7.1,1,14.4,1.9,23,2.9 c31.5,3.6,61.3,7,100.1,7.4c30.1-0.3,47-2.4,68.4-5.1c6-0.7,12.2-1.5,19.2-2.3c5.1-0.6,9.9-1.2,14.7-1.7C542.3,8.2,569.6,5,614.9,5 c52.6,0,104.9,22.4,143.7,61.5C798.4,106.7,820.5,160,821,217c0-0.7,0-1.3,0-2c0-57.7-22.2-111.9-62.4-152.5 C719.8,23.4,667.4,1,614.9,1c-45.3,0-72.6,3.2-101.5,6.7c-4.8,0.6-9.7,1.1-14.7,1.7c-7,0.8-13.2,1.6-19.2,2.3 c-21.4,2.7-38.3,4.8-68.4,5.1c-38.8-0.4-68.6-3.8-100.1-7.4c-8.6-1-15.9-2-23-2.9C266.1,3.5,247.2,1,207.1,1 C154.6,1,102.2,23.4,63.4,62.5C23.2,103.1,1,157.3,1,215c0,0.7,0,1.3,0,2C1.5,160,23.6,106.7,63.4,66.5z"/><path d="M614.9,17c-51.4,0-78.3,4.2-114,8.3c-32.1,3.7-49.9,7.1-89.9,7.5c-39.9-0.4-70.3-3.9-102.4-7.5 c-35.7-4.1-50-8.3-101.5-8.3C110,17,21,100.6,21,211c0,0.7,0,1.3,0,2c1.1-109.4,89.6-192,186.1-192c51.4,0,65.8,4.2,101.5,8.3 c32.1,3.7,62.5,7.1,102.4,7.5c39.9-0.4,57.7-3.9,89.9-7.5c35.7-4.1,62.6-8.3,114-8.3c96.5,0,185,82.6,186.1,192c0-0.7,0-1.3,0-2 C801,100.6,712,17,614.9,17z" fill="#6d4632"/><path class="st2" d="M221.3,413h379.4C711.1,413,801,329.4,801,219c0-0.7,0-1.3,0-2c-1.1,109.4-90.5,192-200.3,192H221.3 C111.5,409,22.1,326.4,21,217c0,0.7,0,1.3,0,2C21,329.4,110.9,413,221.3,413z"/></g></svg>