<svg xmlns="http://www.w3.org/2000/svg" height="428" width="820" viewBox="0 0 820 428"><path d="M221.3,408h379.4C711.1,408,801,324.4,801,214S712,20,614.9,20c-51.4,0-78.3,4.2-114,8.3	c-32.1,3.7-49.9,7.1-89.9,7.5c-39.9-0.4-70.3-3.9-102.4-7.5c-35.7-4.1-50-8.3-101.5-8.3C110,20,21,103.6,21,214S110.9,408,221.3,408	z" fill="#48b36f"/><radialGradient id="a" cx="333.518" cy="157.583" r="395.46" gradientTransform="matrix(1.2519 .01794 -.01025 .7147 -4.908 95.393)" gradientUnits="userSpaceOnUse"><stop offset="0" stop-opacity="0"/><stop offset=".535" stop-opacity=".2"/><stop offset="1" stop-opacity=".6"/></radialGradient><path d="M221.3,408h379.4C711.1,408,801,324.4,801,214S712,20,614.9,20c-51.4,0-78.3,4.2-114,8.3	c-32.1,3.7-49.9,7.1-89.9,7.5c-39.9-0.4-70.3-3.9-102.4-7.5c-35.7-4.1-50-8.3-101.5-8.3C110,20,21,103.6,21,214S110.9,408,221.3,408	z" fill="url(#a)"/><radialGradient id="b" cx="333.518" cy="157.583" r="430.217" gradientTransform="matrix(1.2518 .01997 -.01141 .7147 -4.715 94.717)" gradientUnits="userSpaceOnUse"><stop offset="0" stop-opacity="0"/><stop offset=".535" stop-opacity=".2"/><stop offset="1" stop-opacity=".6"/></radialGradient><path d="M221.3,389C119.6,389,40,312.1,40,214c0-47.4,18.2-91.8,51.1-125c31.5-31.8,73.8-50,116-50	c37.5,0,54.3,2.3,75.6,5.1c7.3,1,14.8,2,23.8,3c32.6,3.7,63.4,7.2,104.3,7.7h0.4c32.4-0.3,51.2-2.7,73-5.4c5.9-0.7,12-1.5,18.8-2.3	c5.1-0.6,10.1-1.2,14.9-1.7c29-3.4,54-6.4,96.9-6.4c42.2,0,84.5,18.2,116,50c33,33.3,51.1,77.7,51.1,125c0,98.1-79.6,175-181.3,175	H221.3z" fill="url(#b)"/><path d="M733.7,86.2C701.5,53.6,658.2,35,614.9,35c-43.2,0-68.3,3-97.4,6.4c-4.9,0.6-9.8,1.2-14.9,1.7	c-6.8,0.8-12.9,1.5-18.9,2.3c-21.6,2.7-40.3,5-72.5,5.4h-0.3c-40.7-0.4-71.4-3.9-103.9-7.6c-9-1-16.5-2-23.7-3	c-21.4-2.9-38.3-5.2-76.1-5.2c-43.3,0-86.6,18.6-118.8,51.2C54.6,120.2,36,165.6,36,214c0,100.4,81.4,179,185.3,179h379.4	C704.6,393,786,314.4,786,214C786,165.6,767.4,120.2,733.7,86.2z M600.7,389H221.3C119.6,389,40,312.1,40,214	c0-47.4,18.2-91.8,51.1-125c31.5-31.8,73.8-50,116-50c37.5,0,54.3,2.3,75.6,5.1c7.3,1,14.8,2,23.8,3c32.6,3.7,63.4,7.2,104.3,7.7	h0.4c32.5-0.3,51.3-2.7,73-5.4c6-0.7,12.1-1.5,18.8-2.3c5.1-0.6,10-1.2,14.9-1.7c29-3.4,54-6.4,97-6.4c42.2,0,84.5,18.2,116,50	c33,33.3,51.1,77.7,51.1,125C782,312.1,702.4,389,600.7,389z" opacity=".1" fill="#fff"/></svg>